<?xml version="1.0" encoding="UTF-8" standalone="no"?>
<svg
   xmlns:oryx="http://www.b3mn.org/oryx"
   xmlns:dc="http://purl.org/dc/elements/1.1/"
   xmlns:cc="http://creativecommons.org/ns#"
   xmlns:rdf="http://www.w3.org/1999/02/22-rdf-syntax-ns#"
   xmlns:svg="http://www.w3.org/2000/svg"
   xmlns="http://www.w3.org/2000/svg"
   xmlns:sodipodi="http://sodipodi.sourceforge.net/DTD/sodipodi-0.dtd"
   xmlns:inkscape="http://www.inkscape.org/namespaces/inkscape"
   width="40"
   height="40"
   version="1.0"
   id="svg3083"
   sodipodi:docname="ngsi.svg">
  <defs
     id="defs3085" />
  <oryx:magnets>
    <oryx:magnet
       oryx:cx="16"
       oryx:cy="16"
       oryx:default="yes" />
  </oryx:magnets>
  <g
     pointer-events="fill">
    <defs>
      <radialGradient id="background" cx="10%" cy="10%" r="100%" fx="10%" fy="10%">
			<stop offset="0%" stop-color="#ffffff" stop-opacity="1"/>
			<stop id="fill_el" offset="100%" stop-color="#ffffff" stop-opacity="1"/>
		</radialGradient>
    </defs>
    <circle
       id="bg_frame"
       cx="16"
       cy="16"
       r="15"
       stroke="black"
       fill="url(#background) white"
       stroke-width="1" />
    <path
       id="path2996" transform="translate(0.47939443,8.8687969)"
       d="m 28.346457,9.5314955 c 0,2.5866135 -2.551182,4.9251965 -5.350394,4.9251965 -2.799213,0 -5.350394,-2.338583 -5.350394,-4.9251965 0,-2.586614 2.551181,-4.9251966 5.350394,-4.9251966 2.799212,0 5.350394,2.3385826 5.350394,4.9251966 z"
       style="fill:none;stroke:#000000;stroke-width:0.99212599px;stroke-linecap:butt;stroke-linejoin:miter;stroke-miterlimit:4;stroke-opacity:1;stroke-dasharray:none"
       inkscape:connector-curvature="0" />
    <path
       id="path2998" transform="translate(0.47939443,8.8687969)"
       d="m 20.728346,10.452755 0.708662,-0.03543 c 0.03543,0.283465 0.106299,0.496063 0.248031,0.708662 0.106299,0.177165 0.283465,0.318897 0.566929,0.425196 0.248032,0.1063 0.531496,0.177166 0.885827,0.177166 0.283465,0 0.531496,-0.03543 0.744095,-0.141733 0.212598,-0.07087 0.389763,-0.177165 0.496063,-0.35433 0.106299,-0.141733 0.177165,-0.283465 0.177165,-0.46063 0,-0.212599 -0.07087,-0.354331 -0.177165,-0.496063 C 24.271653,10.133858 24.129921,10.027558 23.88189,9.9566923 23.704724,9.8858262 23.385827,9.779527 22.854331,9.6732277 22.322835,9.5314955 21.968504,9.4251963 21.755905,9.3188971 21.472441,9.1771648 21.259842,8.9999994 21.153543,8.787401 21.011811,8.5748026 20.940945,8.3267711 20.940945,8.0787397 c 0,-0.3188977 0.07087,-0.5669291 0.248031,-0.8149606 0.141733,-0.2480315 0.389764,-0.4606299 0.708662,-0.5669291 0.318897,-0.1417323 0.673228,-0.2125984 1.062992,-0.2125984 0.425197,0 0.779527,0.070866 1.098425,0.2125984 0.354331,0.1417323 0.602362,0.3188976 0.779528,0.6023621 0.141732,0.2480315 0.248031,0.5669291 0.248031,0.8858268 L 24.377953,8.255905 C 24.34252,7.9015743 24.200787,7.6181098 23.988189,7.4409444 23.740157,7.2637791 23.42126,7.1574799 22.996063,7.1574799 c -0.46063,0 -0.814961,0.070866 -1.027559,0.2480314 -0.212599,0.1771654 -0.318898,0.3543307 -0.318898,0.6023622 0,0.2125984 0.106299,0.3897638 0.248032,0.496063 0.141732,0.1417323 0.531496,0.2834645 1.133858,0.4251968 0.602362,0.1417323 1.027559,0.2480315 1.27559,0.3543307 0.318898,0.1771653 0.56693,0.3543307 0.744095,0.6023622 0.141732,0.2125988 0.212598,0.4960628 0.212598,0.8149608 0,0.283464 -0.07087,0.566929 -0.248031,0.850393 -0.177165,0.283465 -0.425197,0.496063 -0.744095,0.637796 -0.35433,0.141732 -0.708661,0.212598 -1.098425,0.212598 -0.531496,0 -0.956693,-0.07087 -1.311023,-0.212598 -0.354331,-0.141733 -0.637796,-0.389764 -0.814961,-0.673229 -0.212598,-0.318897 -0.318898,-0.673228 -0.318898,-1.062992 z"
       style="fill:#000000;fill-opacity:1;fill-rule:nonzero;stroke:none"
       inkscape:connector-curvature="0" />
    <path
       id="path3000" transform="translate(0.47939443,8.8687969)"
       d="m 12.224409,9.5314955 c 0,0.9566925 -0.850393,1.8425195 -1.807086,1.8425195 -0.9212601,0 -1.7716538,-0.885827 -1.7716538,-1.8425195 0,-0.992126 0.8503937,-1.8779527 1.7716538,-1.8779527 0.956693,0 1.807086,0.8858267 1.807086,1.8779527 z"
       style="fill:#000000;fill-opacity:1;fill-rule:nonzero;stroke:#000000;stroke-width:0.99212599px;stroke-linecap:butt;stroke-linejoin:miter;stroke-miterlimit:4;stroke-opacity:1;stroke-dasharray:none"
       inkscape:connector-curvature="0" />
    <path
       id="path3002" transform="translate(0.47939443,8.8687969)"
       d="m 10.346457,9.4606293 6.909448,0"
       style="fill:none;stroke:#000000;stroke-width:0.99212599px;stroke-linecap:butt;stroke-linejoin:miter;stroke-miterlimit:4;stroke-opacity:1;stroke-dasharray:none"
       inkscape:connector-curvature="0" />
    <path
       id="path3004" transform="translate(0.47939443,8.8687969)"
       d="m 6.3425196,0.81496058 c 0,2.79921242 -2.6220472,5.35039332 -5.56299205,5.35039332"
       style="fill:none;stroke:#000000;stroke-width:0.99212599px;stroke-linecap:butt;stroke-linejoin:miter;stroke-miterlimit:4;stroke-opacity:1;stroke-dasharray:none"
       inkscape:connector-curvature="0" />
    <path
       id="path3006" transform="translate(0.47939443,8.8687969)"
       d="m 9.9921259,0.53149603 c 0,2.40944867 -1.027559,4.81889737 -2.7637795,6.55511767 C 5.4566929,8.787401 2.9763779,9.81496 0.49606299,9.81496"
       style="fill:none;stroke:#000000;stroke-width:0.99212599px;stroke-linecap:butt;stroke-linejoin:miter;stroke-miterlimit:4;stroke-opacity:1;stroke-dasharray:none"
       inkscape:connector-curvature="0" />
    </g>
</svg>
